<svg width="48" height="48" viewBox="0 0 48 48" fill="none" xmlns="http://www.w3.org/2000/svg">
<rect x="0.5" y="0.5" width="47" height="47" rx="11.5" fill="white"/>
<path d="M15 15H17V29C17 29.2652 17.1054 29.5196 17.2929 29.7071C17.4804 29.8946 17.7348 30 18 30H30C30.2151 30 30.4245 29.9307 30.5971 29.8022C30.7697 29.6738 30.8963 29.4931 30.958 29.287L33.958 19.287C34.0027 19.1377 34.0119 18.98 33.9849 18.8265C33.9579 18.673 33.8953 18.5279 33.8022 18.4029C33.7092 18.2779 33.5882 18.1763 33.4489 18.1064C33.3096 18.0364 33.1559 18 33 18H19V14C19 13.7348 18.8946 13.4804 18.7071 13.2929C18.5196 13.1054 18.2652 13 18 13H15C14.7348 13 14.4804 13.1054 14.2929 13.2929C14.1054 13.4804 14 13.7348 14 14C14 14.2652 14.1054 14.5196 14.2929 14.7071C14.4804 14.8946 14.7348 15 15 15ZM19 20H31.656L29.256 28H19V20ZM18.5 31C18.7967 31 19.0867 31.088 19.3334 31.2528C19.58 31.4176 19.7723 31.6519 19.8858 31.926C19.9994 32.2001 20.0291 32.5017 19.9712 32.7926C19.9133 33.0836 19.7704 33.3509 19.5607 33.5607C19.3509 33.7704 19.0836 33.9133 18.7926 33.9712C18.5017 34.0291 18.2001 33.9993 17.926 33.8858C17.6519 33.7723 17.4176 33.58 17.2528 33.3334C17.088 33.0867 17 32.7967 17 32.5C17 32.1022 17.158 31.7206 17.4393 31.4393C17.7206 31.158 18.1022 31 18.5 31ZM28.5 31C28.7967 31 29.0867 31.088 29.3334 31.2528C29.58 31.4176 29.7723 31.6519 29.8858 31.926C29.9993 32.2001 30.0291 32.5017 29.9712 32.7926C29.9133 33.0836 29.7704 33.3509 29.5607 33.5607C29.3509 33.7704 29.0836 33.9133 28.7926 33.9712C28.5017 34.0291 28.2001 33.9993 27.926 33.8858C27.6519 33.7723 27.4176 33.58 27.2528 33.3334C27.088 33.0867 27 32.7967 27 32.5C27 32.1022 27.158 31.7206 27.4393 31.4393C27.7206 31.158 28.1022 31 28.5 31Z" fill="#153067"/>
<rect x="0.5" y="0.5" width="47" height="47" rx="11.5" stroke="#D2DAE9"/>
</svg>
