<svg width="48" height="48" viewBox="0 0 48 48" fill="none" xmlns="http://www.w3.org/2000/svg">
<rect x="0.5" y="0.5" width="47" height="47" rx="11.5" fill="white"/>
<path d="M13.277 20.858C14.606 26.138 21.863 33.4 27.142 34.723C27.8547 34.9036 28.5868 34.9957 29.322 34.997C30.719 34.9964 32.0946 34.653 33.328 33.997C33.7602 33.7713 34.1332 33.4471 34.417 33.0506C34.7008 32.6542 34.8875 32.1965 34.9618 31.7147C35.0362 31.2328 34.9962 30.7402 34.8451 30.2766C34.694 29.8131 34.436 29.3915 34.092 29.046L32.006 26.96C31.5638 26.518 30.9988 26.2195 30.3844 26.1033C29.7701 25.9872 29.135 26.0589 28.562 26.309C28.0153 26.5451 27.5167 26.8797 27.091 27.296C26.913 27.473 26.585 27.501 26.114 27.373C24.8792 26.8712 23.7575 26.1271 22.8149 25.1847C21.8723 24.2423 21.1281 23.1207 20.626 21.886C20.5 21.415 20.526 21.086 20.704 20.909C21.1208 20.4827 21.4557 19.9834 21.692 19.436C21.9416 18.8632 22.0129 18.2286 21.8968 17.6147C21.7807 17.0008 21.4825 16.4361 21.041 15.994L18.955 13.909C18.6135 13.5633 18.1946 13.3037 17.7329 13.1517C17.2713 12.9998 16.7802 12.9598 16.3 13.035C15.8144 13.1063 15.3527 13.2919 14.9529 13.5765C14.553 13.8611 14.2264 14.2366 14 14.672C12.9927 16.5707 12.7347 18.7782 13.277 20.858ZM15.773 15.6C15.8546 15.4438 15.9722 15.3091 16.1159 15.207C16.2597 15.105 16.4256 15.0385 16.6 15.013C16.6552 15.0042 16.7111 14.9999 16.767 15C16.911 15 17.0535 15.0285 17.1864 15.0839C17.3193 15.1394 17.4398 15.2206 17.541 15.323L19.626 17.408C19.7828 17.563 19.8894 17.7615 19.9321 17.9778C19.9747 18.194 19.9513 18.4182 19.865 18.621C19.7285 18.9466 19.5336 19.2445 19.29 19.5C18.9323 19.8811 18.6877 20.3541 18.5835 20.8663C18.4793 21.3784 18.5197 21.9095 18.7 22.4C19.422 25.1 22.905 28.579 25.6 29.3C26.0925 29.48 26.6253 29.5192 27.1388 29.4133C27.6523 29.3073 28.1261 29.0603 28.507 28.7C28.7611 28.4567 29.0572 28.2615 29.381 28.124C29.584 28.0375 29.8083 28.014 30.0248 28.0566C30.2413 28.0993 30.44 28.206 30.595 28.363L32.68 30.448C32.8026 30.5693 32.8946 30.7179 32.9485 30.8817C33.0024 31.0454 33.0166 31.2197 32.99 31.39C32.964 31.5647 32.8969 31.7307 32.7941 31.8743C32.6914 32.0179 32.5559 32.135 32.399 32.216C30.9389 33.0007 29.2346 33.1996 27.633 32.772C23.089 31.641 16.36 24.912 15.216 20.37C14.789 18.767 14.9882 17.0615 15.773 15.6Z" fill="#153067"/>
<rect x="0.5" y="0.5" width="47" height="47" rx="11.5" stroke="#D2DAE9"/>
</svg>
