<svg width="48" height="48" viewBox="0 0 48 48" fill="none" xmlns="http://www.w3.org/2000/svg">
<rect x="0.5" y="0.5" width="47" height="47" rx="11.5" fill="white"/>
<path d="M24 23C24.9889 23 25.9556 22.7068 26.7779 22.1573C27.6001 21.6079 28.241 20.8271 28.6194 19.9134C28.9978 18.9998 29.0969 17.9945 28.9039 17.0246C28.711 16.0546 28.2348 15.1637 27.5355 14.4645C26.8363 13.7652 25.9454 13.289 24.9755 13.0961C24.0055 12.9031 23.0002 13.0022 22.0866 13.3806C21.173 13.759 20.3921 14.3999 19.8427 15.2222C19.2932 16.0444 19 17.0111 19 18C19.0016 19.3256 19.5289 20.5964 20.4662 21.5338C21.4036 22.4711 22.6744 22.9984 24 23ZM24 15C24.5933 15 25.1734 15.1759 25.6667 15.5056C26.1601 15.8352 26.5446 16.3038 26.7716 16.852C26.9987 17.4001 27.0581 18.0033 26.9424 18.5853C26.8266 19.1672 26.5409 19.7018 26.1213 20.1213C25.7018 20.5409 25.1672 20.8266 24.5853 20.9424C24.0033 21.0581 23.4001 20.9987 22.8519 20.7716C22.3038 20.5446 21.8352 20.1601 21.5056 19.6667C21.1759 19.1734 21 18.5933 21 18C21 17.2044 21.3161 16.4413 21.8787 15.8787C22.4413 15.3161 23.2044 15 24 15ZM15 34C15 31.6131 15.9482 29.3239 17.636 27.636C19.3239 25.9482 21.6131 25 24 25C26.3869 25 28.6761 25.9482 30.364 27.636C32.0518 29.3239 33 31.6131 33 34C33 34.2652 32.8946 34.5196 32.7071 34.7071C32.5196 34.8946 32.2652 35 32 35C31.7348 35 31.4804 34.8946 31.2929 34.7071C31.1054 34.5196 31 34.2652 31 34C31 32.1435 30.2625 30.363 28.9497 29.0503C27.637 27.7375 25.8565 27 24 27C22.1435 27 20.363 27.7375 19.0503 29.0503C17.7375 30.363 17 32.1435 17 34C17 34.2652 16.8946 34.5196 16.7071 34.7071C16.5196 34.8946 16.2652 35 16 35C15.7348 35 15.4804 34.8946 15.2929 34.7071C15.1054 34.5196 15 34.2652 15 34Z" fill="#153067"/>
<rect x="0.5" y="0.5" width="47" height="47" rx="11.5" stroke="#D2DAE9"/>
</svg>
