<svg width="21" height="21" viewBox="0 0 21 21" fill="none" xmlns="http://www.w3.org/2000/svg">
<path d="M18.368 8.73251C18.3708 7.69939 18.17 6.67584 17.7772 5.7203C17.3844 4.76476 16.8072 3.89595 16.0786 3.16347C14.6072 1.68415 12.6084 0.849958 10.5219 0.844388C8.43538 0.838819 6.43213 1.66233 4.95282 3.13377C3.47351 4.6052 2.63932 6.60402 2.63375 8.69051C2.61527 11.1145 3.31892 13.489 4.65503 15.5116C5.99113 17.5341 7.89918 19.113 10.136 20.0471C10.2503 20.0989 10.3745 20.1255 10.5 20.125C10.6264 20.1252 10.7514 20.0984 10.8666 20.0463C13.0966 19.115 15 17.5427 16.3354 15.5285C17.6708 13.5144 18.3783 11.1491 18.368 8.73251ZM10.5 18.2875C8.65544 17.4754 7.09126 16.1375 6.00308 14.4411C4.9149 12.7448 4.35103 10.7652 4.382 8.75001C4.382 7.94659 4.54024 7.15103 4.8477 6.40876C5.15516 5.66649 5.60581 4.99204 6.17392 4.42393C6.74203 3.85583 7.41647 3.40518 8.15874 3.09772C8.90101 2.79026 9.69657 2.63201 10.5 2.63201C11.3034 2.63201 12.099 2.79026 12.8413 3.09772C13.5835 3.40518 14.258 3.85583 14.8261 4.42393C15.3942 4.99204 15.8448 5.66649 16.1523 6.40876C16.4598 7.15103 16.618 7.94659 16.618 8.75001C16.618 8.76839 16.618 8.78939 16.618 8.80689C16.6392 10.8127 16.0707 12.7806 14.983 14.4661C13.8953 16.1516 12.3364 17.4804 10.5 18.2875ZM12.25 8.75001C12.25 9.09613 12.1474 9.43447 11.9551 9.72226C11.7628 10.01 11.4895 10.2343 11.1697 10.3668C10.8499 10.4993 10.4981 10.5339 10.1586 10.4664C9.81912 10.3989 9.5073 10.2322 9.26256 9.98745C9.01782 9.74271 8.85115 9.43089 8.78362 9.09142C8.7161 8.75196 8.75075 8.40009 8.88321 8.08032C9.01566 7.76055 9.23996 7.48723 9.52775 7.29494C9.81554 7.10265 10.1539 7.00001 10.5 7.00001C10.9641 7.00001 11.4092 7.18439 11.7374 7.51258C12.0656 7.84077 12.25 8.28588 12.25 8.75001Z" fill="#535761"/>
</svg>
